<svg width="32" height="32" viewBox="0 0 32 32" fill="none" xmlns="http://www.w3.org/2000/svg">
<path fill-rule="evenodd" clip-rule="evenodd" d="M29.3327 28.0003V18.667C29.3327 17.3794 29.0223 16.1239 28.4429 15.0003C28.0676 14.2724 27.5794 13.6 26.9895 13.0101C25.4892 11.5098 23.4544 10.667 21.3327 10.667C21.199 10.667 21.0657 10.6703 20.9328 10.677C20.6287 10.6922 20.327 10.7247 20.029 10.7739C18.9137 10.9581 17.8507 11.3766 16.9105 12.0003C16.4695 12.2928 16.0555 12.6304 15.6758 13.0101C15.6726 13.0134 15.6693 13.0167 15.666 13.02C15.0806 13.6074 14.5957 14.2765 14.2224 15.0003C13.6431 16.1239 13.3327 17.3794 13.3327 18.667V28.0003H18.666V18.667C18.666 17.9597 18.947 17.2815 19.4471 16.7814C19.8679 16.3605 20.415 16.0948 20.9993 16.0212C21.1093 16.0074 21.2206 16.0003 21.3327 16.0003C22.0399 16.0003 22.7182 16.2813 23.2183 16.7814C23.7184 17.2815 23.9993 17.9597 23.9993 18.667V28.0003H29.3327ZM7.99935 12.0003H2.66602V28.0003H7.99935V12.0003ZM3.62338 7.38055C4.08621 7.76746 4.68225 8.00033 5.33268 8.00033C6.80544 8.00033 7.99935 6.80642 7.99935 5.33366C7.99935 4.50939 7.62537 3.77246 7.03783 3.28331C6.57559 2.89847 5.98117 2.66699 5.33268 2.66699C3.85992 2.66699 2.66602 3.8609 2.66602 5.33366C2.66602 6.15599 3.03823 6.89138 3.62338 7.38055Z" fill="white"/>
</svg>
